<svg xmlns="http://www.w3.org/2000/svg" width="60" height="60" viewBox="0 0 60 60" fill="none"><path d="M41.2008 1C41.2008 1 35.6008 3.8 30.0008 3.8C24.4008 3.8 18.8008 1 18.8008 1L30.0008 28L41.2008 1Z" fill="#E31D24"/><path d="M17.3996 1.6C17.3996 1.6 15.3996 7.6 11.3996 11.6C7.59961 15.4 1.59961 17.4 1.59961 17.4L28.5996 28.6L17.3996 1.6Z" fill="white"/><path d="M59.002 41.2C59.002 41.2 56.202 35.6 56.202 30C56.202 24.4 59.002 18.8 59.002 18.8L32.0019 30L59.002 41.2Z" fill="#E31D24"/><path d="M58.4004 17.4C58.4004 17.4 52.4004 15.4 48.4004 11.4C44.6004 7.60001 42.6004 1.60001 42.6004 1.60001L31.4004 28.6L58.4004 17.4Z" fill="white"/><path d="M18.8012 59C18.8012 59 24.4012 56.2 30.0012 56.2C35.6012 56.2 41.2012 59 41.2012 59L30.0012 32L18.8012 59Z" fill="#E31D24"/><path d="M42.6004 58.4C42.6004 58.4 44.6004 52.4 48.6004 48.4C52.4004 44.6 58.4004 42.6 58.4004 42.6L31.4004 31.4L42.6004 58.4Z" fill="white"/><path d="M0.998047 18.8C0.998047 18.8 3.79805 24.4 3.79805 30C3.79805 35.6 0.998047 41.2 0.998047 41.2L27.9981 30L0.998047 18.8Z" fill="#E31D24"/><path d="M1.59961 42.6C1.59961 42.6 7.59961 44.6 11.5996 48.6C15.3996 52.4 17.3996 58.4 17.3996 58.4L28.5996 31.4L1.59961 42.6Z" fill="white"/></svg>